<svg xmlns="http://www.w3.org/2000/svg" viewBox="0 0 220 240" width="220" height="240">
  <!-- Mlsná Malina — Čte / rediguje | odvozeno z assets/malina.svg -->
  <g transform="translate(10,15)">
  <path d="M 60 70 A 20 20 0 0 1 90 55 A 20 20 0 0 1 120 55 A 20 20 0 0 1 150 70 A 20 20 0 0 1 160 100 A 20 20 0 0 1 150 130 A 20 20 0 0 1 125 155 A 20 20 0 0 1 100 180 A 20 20 0 0 1 75 155 A 20 20 0 0 1 50 130 A 20 20 0 0 1 40 100 A 20 20 0 0 1 60 70 Z" fill="#a31f4f" stroke="#7a1438" stroke-width="6" stroke-linecap="round" stroke-linejoin="round"/>
  <circle cx="80" cy="88" r="13" fill="#FFFFFF" stroke="#7a1438" stroke-width="4"/>
  <circle cx="120" cy="88" r="13" fill="#FFFFFF" stroke="#7a1438" stroke-width="4"/>
  <circle cx="80" cy="93" r="5.5" fill="#7a1438"/>
  <circle cx="120" cy="93" r="5.5" fill="#7a1438"/>
  <path d="M 86 118 Q 100 132 114 118" fill="none" stroke="#7a1438" stroke-width="5" stroke-linecap="round"/>
  <g fill="none" stroke="#7a1438" stroke-width="5" stroke-linecap="round">
    <path d="M 52 118 Q 60 130 68 120"/>
    <path d="M 132 120 Q 140 130 148 118"/>
  </g>
  <g fill="none" stroke="#7a1438" stroke-width="6" stroke-linecap="round">
    <path d="M 48 130 Q 40 152 58 166"/>
    <path d="M 152 130 Q 160 152 142 166"/>
  </g>
  <path d="M 52 168 Q 76 154 100 166 Q 124 154 148 168 L 148 200 Q 124 188 100 198 Q 76 188 52 200 Z"
        fill="#FFFFFF" stroke="#7a1438" stroke-width="5" stroke-linejoin="round"/>
  <path d="M 100 166 L 100 198" stroke="#7a1438" stroke-width="4" stroke-linecap="round"/>
  <g fill="none" stroke="#7a1438" stroke-width="3" stroke-linecap="round" opacity="0.55">
    <path d="M 62 176 Q 80 168 93 175"/>
    <path d="M 107 175 Q 120 168 138 176"/>
  </g>
  </g>
</svg>
