<svg xmlns="http://www.w3.org/2000/svg" viewBox="0 0 260 300" width="260" height="300">
  <!-- Mlsná Malina — Slaví -->
  <g stroke="#7a1438" stroke-width="11" stroke-linecap="round">
    <line x1="112" y1="240" x2="112" y2="272"/>
    <line x1="148" y1="240" x2="148" y2="272"/>
  </g>
  <ellipse cx="110" cy="277" rx="14" ry="8" fill="#7a1438"/>
  <ellipse cx="150" cy="277" rx="14" ry="8" fill="#7a1438"/>
  <g fill="#7a1438">
    <path d="M 130 80 C 123 58 123 44 130 32 C 137 44 137 58 130 80 Z" transform="rotate(0 130 80)"/>
    <path d="M 130 80 C 123 58 123 44 130 32 C 137 44 137 58 130 80 Z" transform="rotate(-42 130 80)"/>
    <path d="M 130 80 C 123 58 123 44 130 32 C 137 44 137 58 130 80 Z" transform="rotate(42 130 80)"/>
  </g>
  <path d="M 130 36 Q 127 26 136 22" fill="none" stroke="#7a1438" stroke-width="4" stroke-linecap="round"/>
  <path d="M 68 150 Q 44 122 52 94" fill="none" stroke="#7a1438" stroke-width="11" stroke-linecap="round"/><circle cx="53" cy="90" r="9" fill="#7a1438"/><path d="M 192 150 Q 216 122 208 94" fill="none" stroke="#7a1438" stroke-width="11" stroke-linecap="round"/><circle cx="207" cy="90" r="9" fill="#7a1438"/>
  <circle cx="130" cy="246" r="17" fill="#a31f4f" stroke="#7a1438" stroke-width="5"/>
  <circle cx="110" cy="218" r="22" fill="#a31f4f" stroke="#7a1438" stroke-width="5"/>
  <circle cx="150" cy="218" r="22" fill="#a31f4f" stroke="#7a1438" stroke-width="5"/>
  <circle cx="92" cy="180" r="26" fill="#a31f4f" stroke="#7a1438" stroke-width="5"/>
  <circle cx="168" cy="180" r="26" fill="#a31f4f" stroke="#7a1438" stroke-width="5"/>
  <circle cx="130" cy="186" r="26" fill="#a31f4f" stroke="#7a1438" stroke-width="5"/>
  <circle cx="74" cy="144" r="26" fill="#B83066" stroke="#7a1438" stroke-width="5"/>
  <circle cx="186" cy="144" r="26" fill="#a31f4f" stroke="#7a1438" stroke-width="5"/>
  <circle cx="112" cy="138" r="26" fill="#a31f4f" stroke="#7a1438" stroke-width="5"/>
  <circle cx="148" cy="138" r="26" fill="#a31f4f" stroke="#7a1438" stroke-width="5"/>
  <circle cx="92" cy="102" r="26" fill="#a31f4f" stroke="#7a1438" stroke-width="5"/>
  <circle cx="168" cy="102" r="26" fill="#B83066" stroke="#7a1438" stroke-width="5"/>
  <circle cx="130" cy="94" r="26" fill="#a31f4f" stroke="#7a1438" stroke-width="5"/>
  <ellipse cx="130" cy="142" rx="62" ry="50" fill="#a31f4f"/>
  <path d="M 94 128 Q 105 137 116 128" fill="none" stroke="#7a1438" stroke-width="5" stroke-linecap="round"/><path d="M 144 128 Q 155 137 166 128" fill="none" stroke="#7a1438" stroke-width="5" stroke-linecap="round"/>
  <path d="M 111 159 Q 130 188 149 159 Z" fill="#7a1438"/><path d="M 120 170 Q 130 178 140 170 L 138 173 Q 130 180 122 173 Z" fill="#B83066"/>
  <ellipse cx="84" cy="154" rx="10" ry="5.5" fill="#B83066" opacity="0.6"/><ellipse cx="176" cy="154" rx="10" ry="5.5" fill="#B83066" opacity="0.6"/>
  <g transform="rotate(18 168 60)"><path d="M 148 84 L 188 84 L 168 34 Z" fill="#B83066" stroke="#7a1438" stroke-width="4" stroke-linejoin="round"/><circle cx="168" cy="32" r="7" fill="#7a1438"/></g><circle cx="36" cy="70" r="5" fill="#B83066"/><rect x="220" y="100" width="9" height="9" rx="2" fill="#a31f4f" transform="rotate(24 224 104)"/><circle cx="228" cy="52" r="4.5" fill="#a31f4f"/><rect x="30" y="130" width="8" height="8" rx="2" fill="#B83066" transform="rotate(-18 34 134)"/><circle cx="52" cy="34" r="4" fill="#7a1438"/><rect x="196" y="24" width="8" height="8" rx="2" fill="#B83066" transform="rotate(40 200 28)"/>
</svg>
