<svg xmlns="http://www.w3.org/2000/svg" viewBox="0 0 220 240" width="220" height="240">
  <!-- Mlsná Malina — Nadšení | odvozeno z assets/malina.svg -->
  <g transform="translate(10,15)">
  <g fill="none" stroke="#7a1438" stroke-width="6" stroke-linecap="round">
    <path d="M 46 108 Q 28 88 24 62"/>
    <path d="M 154 108 Q 172 88 176 62"/>
  </g>
  <path d="M 60 70 A 20 20 0 0 1 90 55 A 20 20 0 0 1 120 55 A 20 20 0 0 1 150 70 A 20 20 0 0 1 160 100 A 20 20 0 0 1 150 130 A 20 20 0 0 1 125 155 A 20 20 0 0 1 100 180 A 20 20 0 0 1 75 155 A 20 20 0 0 1 50 130 A 20 20 0 0 1 40 100 A 20 20 0 0 1 60 70 Z" fill="#a31f4f" stroke="#7a1438" stroke-width="6" stroke-linecap="round" stroke-linejoin="round"/>
  <g fill="none" stroke="#7a1438" stroke-width="5" stroke-linecap="round">
    <path d="M 68 90 Q 80 78 92 90"/>
    <path d="M 108 90 Q 120 78 132 90"/>
  </g>
  <path d="M 84 116 Q 100 140 116 116 Z" fill="#7a1438" stroke="#7a1438" stroke-width="4" stroke-linejoin="round"/>
  <g fill="none" stroke="#7a1438" stroke-width="5" stroke-linecap="round">
    <path d="M 52 118 Q 60 130 68 120"/>
    <path d="M 132 120 Q 140 130 148 118"/>
    <path d="M 70 148 Q 85 158 100 146"/>
    <path d="M 100 146 Q 115 158 130 148"/>
    <path d="M 85 166 Q 100 176 115 166"/>
  </g>
  <g stroke="#a31f4f" stroke-width="4" stroke-linecap="round">
    <path d="M 28 42 v 14 M 21 49 h 14"/>
    <path d="M 178 30 v 14 M 171 37 h 14"/>
    <path d="M 190 74 v 10 M 185 79 h 10"/>
  </g>
  </g>
</svg>
