<svg xmlns="http://www.w3.org/2000/svg" viewBox="0 0 220 240" width="220" height="240">
  <defs><clipPath id="clip-schovka"><rect x="-10" y="-20" width="230" height="152"/></clipPath></defs>
  <!-- Mlsná Malina — Schovka (pssst) | odvozeno z assets/malina.svg -->
  <g transform="translate(10,15)">
  <g clip-path="url(#clip-schovka)">
  <path d="M 60 70 A 20 20 0 0 1 90 55 A 20 20 0 0 1 120 55 A 20 20 0 0 1 150 70 A 20 20 0 0 1 160 100 A 20 20 0 0 1 150 130 A 20 20 0 0 1 125 155 A 20 20 0 0 1 100 180 A 20 20 0 0 1 75 155 A 20 20 0 0 1 50 130 A 20 20 0 0 1 40 100 A 20 20 0 0 1 60 70 Z" fill="#a31f4f" stroke="#7a1438" stroke-width="6" stroke-linecap="round" stroke-linejoin="round"/>
  <circle cx="80" cy="88" r="13" fill="#FFFFFF" stroke="#7a1438" stroke-width="4"/>
  <circle cx="120" cy="88" r="13" fill="#FFFFFF" stroke="#7a1438" stroke-width="4"/>
  <circle cx="76" cy="88" r="5.5" fill="#7a1438"/>
  <circle cx="116" cy="88" r="5.5" fill="#7a1438"/>
  </g>
  <path d="M 0 132 L 200 132" fill="none" stroke="#7a1438" stroke-width="6" stroke-linecap="round"/>
  <path d="M 52 132 Q 57 119 62 132 Z" fill="#a31f4f" stroke="#7a1438" stroke-width="4" stroke-linejoin="round"/>
  <path d="M 62 132 Q 67 119 72 132 Z" fill="#a31f4f" stroke="#7a1438" stroke-width="4" stroke-linejoin="round"/>
  <path d="M 72 132 Q 77 119 82 132 Z" fill="#a31f4f" stroke="#7a1438" stroke-width="4" stroke-linejoin="round"/>
  <path d="M 122 132 Q 127 119 132 132 Z" fill="#a31f4f" stroke="#7a1438" stroke-width="4" stroke-linejoin="round"/>
  <path d="M 132 132 Q 137 119 142 132 Z" fill="#a31f4f" stroke="#7a1438" stroke-width="4" stroke-linejoin="round"/>
  <path d="M 142 132 Q 147 119 152 132 Z" fill="#a31f4f" stroke="#7a1438" stroke-width="4" stroke-linejoin="round"/>
  </g>
</svg>
