<svg xmlns="http://www.w3.org/2000/svg" viewBox="0 0 220 240" width="220" height="240">
  <!-- Mlsná Malina — Kóduje | odvozeno z assets/malina.svg -->
  <g transform="translate(10,15)">
  <path d="M 60 70 A 20 20 0 0 1 90 55 A 20 20 0 0 1 120 55 A 20 20 0 0 1 150 70 A 20 20 0 0 1 160 100 A 20 20 0 0 1 150 130 A 20 20 0 0 1 125 155 A 20 20 0 0 1 100 180 A 20 20 0 0 1 75 155 A 20 20 0 0 1 50 130 A 20 20 0 0 1 40 100 A 20 20 0 0 1 60 70 Z" fill="#a31f4f" stroke="#7a1438" stroke-width="6" stroke-linecap="round" stroke-linejoin="round"/>
  <circle cx="80" cy="88" r="13" fill="#FFFFFF" stroke="#7a1438" stroke-width="4"/>
  <circle cx="120" cy="88" r="13" fill="#FFFFFF" stroke="#7a1438" stroke-width="4"/>
  <circle cx="80" cy="92" r="5.5" fill="#7a1438"/>
  <circle cx="120" cy="92" r="5.5" fill="#7a1438"/>
  <path d="M 86 118 Q 100 132 114 118" fill="none" stroke="#7a1438" stroke-width="5" stroke-linecap="round"/>
  <g fill="none" stroke="#7a1438" stroke-width="5" stroke-linecap="round">
    <path d="M 52 118 Q 60 130 68 120"/>
    <path d="M 132 120 Q 140 130 148 118"/>
  </g>
  <g fill="none" stroke="#7a1438" stroke-width="6" stroke-linecap="round">
    <path d="M 50 122 Q 44 142 62 150"/>
    <path d="M 150 122 Q 156 142 138 150"/>
  </g>
  <rect x="58" y="140" width="84" height="52" rx="6" fill="#F7F4EE" stroke="#7a1438" stroke-width="5"/>
  <text x="100" y="174" text-anchor="middle" font-family="monospace" font-size="22" font-weight="bold" fill="#7a1438">&lt;/&gt;</text>
  <path d="M 48 192 L 152 192 L 160 206 L 40 206 Z" fill="#F7F4EE" stroke="#7a1438" stroke-width="5" stroke-linejoin="round"/>
  </g>
</svg>
