<svg xmlns="http://www.w3.org/2000/svg" viewBox="0 0 260 300" width="260" height="300">
  <!-- Mlsná Malina — Nadšení -->
  <g stroke="#7a1438" stroke-width="11" stroke-linecap="round">
    <line x1="112" y1="240" x2="112" y2="272"/>
    <line x1="148" y1="240" x2="148" y2="272"/>
  </g>
  <ellipse cx="110" cy="277" rx="14" ry="8" fill="#7a1438"/>
  <ellipse cx="150" cy="277" rx="14" ry="8" fill="#7a1438"/>
  <g fill="#7a1438">
    <path d="M 130 80 C 123 58 123 44 130 32 C 137 44 137 58 130 80 Z" transform="rotate(0 130 80)"/>
    <path d="M 130 80 C 123 58 123 44 130 32 C 137 44 137 58 130 80 Z" transform="rotate(-42 130 80)"/>
    <path d="M 130 80 C 123 58 123 44 130 32 C 137 44 137 58 130 80 Z" transform="rotate(42 130 80)"/>
  </g>
  <path d="M 130 36 Q 127 26 136 22" fill="none" stroke="#7a1438" stroke-width="4" stroke-linecap="round"/>
  <path d="M 68 150 Q 44 122 52 94" fill="none" stroke="#7a1438" stroke-width="11" stroke-linecap="round"/><circle cx="53" cy="90" r="9" fill="#7a1438"/><path d="M 192 150 Q 216 122 208 94" fill="none" stroke="#7a1438" stroke-width="11" stroke-linecap="round"/><circle cx="207" cy="90" r="9" fill="#7a1438"/>
  <circle cx="130" cy="246" r="17" fill="#a31f4f" stroke="#7a1438" stroke-width="5"/>
  <circle cx="110" cy="218" r="22" fill="#a31f4f" stroke="#7a1438" stroke-width="5"/>
  <circle cx="150" cy="218" r="22" fill="#a31f4f" stroke="#7a1438" stroke-width="5"/>
  <circle cx="92" cy="180" r="26" fill="#a31f4f" stroke="#7a1438" stroke-width="5"/>
  <circle cx="168" cy="180" r="26" fill="#a31f4f" stroke="#7a1438" stroke-width="5"/>
  <circle cx="130" cy="186" r="26" fill="#a31f4f" stroke="#7a1438" stroke-width="5"/>
  <circle cx="74" cy="144" r="26" fill="#B83066" stroke="#7a1438" stroke-width="5"/>
  <circle cx="186" cy="144" r="26" fill="#a31f4f" stroke="#7a1438" stroke-width="5"/>
  <circle cx="112" cy="138" r="26" fill="#a31f4f" stroke="#7a1438" stroke-width="5"/>
  <circle cx="148" cy="138" r="26" fill="#a31f4f" stroke="#7a1438" stroke-width="5"/>
  <circle cx="92" cy="102" r="26" fill="#a31f4f" stroke="#7a1438" stroke-width="5"/>
  <circle cx="168" cy="102" r="26" fill="#B83066" stroke="#7a1438" stroke-width="5"/>
  <circle cx="130" cy="94" r="26" fill="#a31f4f" stroke="#7a1438" stroke-width="5"/>
  <ellipse cx="130" cy="142" rx="62" ry="50" fill="#a31f4f"/>
  <ellipse cx="105" cy="130" rx="13" ry="15" fill="#FFFFFF" stroke="#7a1438" stroke-width="4"/><circle cx="105" cy="132" r="6.5" fill="#7a1438"/><circle cx="107.2" cy="129.5" r="2.4" fill="#FFFFFF"/><ellipse cx="155" cy="130" rx="13" ry="15" fill="#FFFFFF" stroke="#7a1438" stroke-width="4"/><circle cx="155" cy="132" r="6.5" fill="#7a1438"/><circle cx="157.2" cy="129.5" r="2.4" fill="#FFFFFF"/>
  <path d="M 93 110 Q 105 104 117 110" fill="none" stroke="#7a1438" stroke-width="4" stroke-linecap="round"/><path d="M 143 110 Q 155 104 167 110" fill="none" stroke="#7a1438" stroke-width="4" stroke-linecap="round"/>
  <path d="M 111 159 Q 130 188 149 159 Z" fill="#7a1438"/><path d="M 120 170 Q 130 178 140 170 L 138 173 Q 130 180 122 173 Z" fill="#B83066"/>
  <ellipse cx="84" cy="154" rx="10" ry="5.5" fill="#B83066" opacity="0.6"/><ellipse cx="176" cy="154" rx="10" ry="5.5" fill="#B83066" opacity="0.6"/>
  <path transform="translate(38,88) scale(1.0)" fill="#B83066" d="M 0 -9 L 2.2 -2.2 L 9 0 L 2.2 2.2 L 0 9 L -2.2 2.2 L -9 0 L -2.2 -2.2 Z"/><path transform="translate(224,76) scale(1.0)" fill="#B83066" d="M 0 -9 L 2.2 -2.2 L 9 0 L 2.2 2.2 L 0 9 L -2.2 2.2 L -9 0 L -2.2 -2.2 Z"/><path transform="translate(210,170) scale(0.7)" fill="#B83066" d="M 0 -9 L 2.2 -2.2 L 9 0 L 2.2 2.2 L 0 9 L -2.2 2.2 L -9 0 L -2.2 -2.2 Z"/><path transform="translate(46,190) scale(0.7)" fill="#B83066" d="M 0 -9 L 2.2 -2.2 L 9 0 L 2.2 2.2 L 0 9 L -2.2 2.2 L -9 0 L -2.2 -2.2 Z"/>
</svg>
