<svg xmlns="http://www.w3.org/2000/svg" viewBox="0 0 200 200" width="100%" height="100%">
  <path d="M 55 115 L 65 135 L 75 135" fill="none" stroke="black" stroke-width="4" stroke-linecap="round" stroke-linejoin="round"/>
  <path d="M 100 120 L 115 135 L 115 145" fill="none" stroke="black" stroke-width="4" stroke-linecap="round" stroke-linejoin="round"/>
  <path d="M 145 110 L 165 125 L 160 140" fill="none" stroke="black" stroke-width="4" stroke-linecap="round" stroke-linejoin="round"/>

  <path d="M 30 90 Q 25 70 35 55" fill="none" stroke="black" stroke-width="3" stroke-linecap="round"/>
  <circle cx="35" cy="55" r="3" fill="black"/>

  <path d="M 75 75 C 105 50 155 55 170 85 C 180 110 140 130 85 120 Z" fill="white" stroke="black" stroke-width="5" stroke-linejoin="round"/>
  
  <path d="M 80 75 C 60 60 45 70 40 90 C 35 110 60 125 85 120 C 95 105 95 85 80 75 Z" fill="white" stroke="black" stroke-width="5" stroke-linejoin="round"/>
  
  <path d="M 45 85 C 25 80 10 90 15 105 C 20 120 40 120 45 110 Z" fill="white" stroke="black" stroke-width="5" stroke-linejoin="round"/>

  <circle cx="28" cy="98" r="4" fill="black"/>
  
  <path d="M 16 110 Q 10 115 14 122" fill="none" stroke="black" stroke-width="3" stroke-linecap="round"/>

  <path d="M 22 102 Q 8 85 15 65" fill="none" stroke="black" stroke-width="4" stroke-linecap="round"/>
  <circle cx="15" cy="65" r="4" fill="black"/>

  <path d="M 45 115 L 35 140 L 20 145" fill="none" stroke="black" stroke-width="5" stroke-linecap="round" stroke-linejoin="round"/>
  <path d="M 90 120 L 85 150 L 70 160" fill="none" stroke="black" stroke-width="5" stroke-linecap="round" stroke-linejoin="round"/>
  <path d="M 135 120 L 130 155 L 110 165" fill="none" stroke="black" stroke-width="5" stroke-linecap="round" stroke-linejoin="round"/>

  <g stroke="black" stroke-width="3" stroke-linecap="round">
    <path d="M 85 68 L 80 58"/>
    <path d="M 100 59 L 95 49"/>
    <path d="M 115 54 L 115 44"/>
    <path d="M 130 54 L 135 44"/>
    <path d="M 145 57 L 155 49"/>
    <path d="M 158 64 L 170 58"/>
    <path d="M 168 76 L 180 74"/>
    <path d="M 172 90 L 185 92"/>
    <path d="M 170 102 L 182 108"/>
  </g>
  
  <g stroke="black" stroke-width="3" stroke-linecap="round">
    <path d="M 68 67 L 63 57"/>
    <path d="M 52 74 L 44 65"/>
  </g>

  <g fill="none" stroke="black" stroke-width="3" stroke-linecap="round" stroke-linejoin="round">
    <path d="M 90 85 Q 95 90 100 85" />
    <path d="M 115 75 Q 120 80 125 75" />
    <path d="M 135 90 Q 140 95 145 90" />
    <path d="M 150 75 Q 155 80 160 75" />
    <path d="M 85 105 Q 90 110 95 105" />
    <path d="M 110 100 Q 115 105 120 100" />
    <path d="M 130 110 Q 135 115 140 110" />
    <path d="M 150 100 Q 155 105 160 100" />
  </g>
  
  <path d="M 170 85 C 150 90 110 85 85 80" fill="none" stroke="black" stroke-width="3" stroke-linecap="round" stroke-dasharray="6,6"/>
</svg>
