<svg xmlns="http://www.w3.org/2000/svg" viewBox="0 0 200 220" width="200" height="220">
  <path d="M 60 70
           A 20 20 0 0 1 90 55
           A 20 20 0 0 1 120 55
           A 20 20 0 0 1 150 70
           A 20 20 0 0 1 160 100
           A 20 20 0 0 1 150 130
           A 20 20 0 0 1 125 155
           A 20 20 0 0 1 100 180
           A 20 20 0 0 1 75 155
           A 20 20 0 0 1 50 130
           A 20 20 0 0 1 40 100
           A 20 20 0 0 1 60 70 Z"
        fill="#a31f4f" 
        stroke="#7a1438" 
        stroke-width="6" 
        stroke-linecap="round" 
        stroke-linejoin="round" />

  <g fill="none" stroke="#7a1438" stroke-width="5" stroke-linecap="round" stroke-linejoin="round">
    <path d="M 65 90 Q 75 105 85 95" />
    <path d="M 115 95 Q 125 105 135 90" />
    <path d="M 90 70 Q 100 85 110 70" />
    
    <path d="M 55 120 Q 65 135 75 120" />
    <path d="M 85 120 Q 100 135 115 120" />
    <path d="M 125 120 Q 135 135 145 120" />
    
    <path d="M 70 145 Q 85 155 100 140" />
    <path d="M 100 140 Q 115 155 130 145" />
    
    <path d="M 85 165 Q 100 175 115 165" />
  </g>
</svg>
